<?xml version="1.0" encoding="UTF-8" standalone="no"?>
<!DOCTYPE svg PUBLIC "-//W3C//DTD SVG 1.1//EN"
 "http://www.w3.org/Graphics/SVG/1.1/DTD/svg11.dtd">
<!-- Generated by graphviz version 2.47.0 (20210316.0004)
 -->
<!-- Pages: 1 -->
<svg width="2104pt" height="409pt"
 viewBox="0.00 0.00 2104.00 409.00" xmlns="http://www.w3.org/2000/svg" xmlns:xlink="http://www.w3.org/1999/xlink">
<g id="graph0" class="graph" transform="scale(1 1) rotate(0) translate(4 405)">
<!-- 2085350082688 -->
<g id="node1" class="node">
<title>2085350082688</title>
<polygon fill="#fafaff" stroke="black" points="1993,-251 1865,-251 1865,-215 1993,-215 1993,-251"/>
<text text-anchor="middle" x="1929" y="-229.9" font-family="Times New Roman,serif" font-size="12.00">Application Declined (7)</text>
</g>
<!-- 2085350082496 -->
<g id="node27" class="node">
<title>2085350082496</title>
<ellipse fill="orange" stroke="black" cx="2069" cy="-233" rx="27" ry="27"/>
</g>
<!-- 2085350082688&#45;&gt;2085350082496 -->
<g id="edge1" class="edge">
<title>2085350082688&#45;&gt;2085350082496</title>
<path fill="none" stroke="black" stroke-width="1.4" d="M1993.35,-233C2006.47,-233 2019.88,-233 2031.64,-233"/>
<polygon fill="black" stroke="black" stroke-width="1.4" points="2031.92,-236.5 2041.92,-233 2031.92,-229.5 2031.92,-236.5"/>
<text text-anchor="middle" x="2017.5" y="-236.4" font-family="Times New Roman,serif" font-size="12.00">7</text>
</g>
<!-- 2085369761552 -->
<g id="node2" class="node">
<title>2085369761552</title>
<polygon fill="black" stroke="black" points="1187,-347 1133,-347 1133,-311 1187,-311 1187,-347"/>
</g>
<!-- 2085350083552 -->
<g id="node26" class="node">
<title>2085350083552</title>
<ellipse fill="none" stroke="black" cx="402" cy="-333" rx="27" ry="27"/>
</g>
<!-- 2085369761552&#45;&gt;2085350083552 -->
<g id="edge9" class="edge">
<title>2085369761552&#45;&gt;2085350083552</title>
<path fill="none" stroke="black" stroke-width="2.2" d="M1132.7,-329.14C1019.13,-329.74 570.69,-332.11 439.34,-332.81"/>
<polygon fill="black" stroke="black" stroke-width="2.2" points="439,-329.31 429.02,-332.86 439.04,-336.31 439,-329.31"/>
<text text-anchor="middle" x="1005.5" y="-332.4" font-family="Times New Roman,serif" font-size="12.00">19</text>
</g>
<!-- 2085349912096 -->
<g id="node3" class="node">
<title>2085349912096</title>
<polygon fill="black" stroke="black" points="221,-188 167,-188 167,-152 221,-152 221,-188"/>
</g>
<!-- 2085350111744 -->
<g id="node25" class="node">
<title>2085350111744</title>
<ellipse fill="none" stroke="black" cx="402" cy="-69" rx="27" ry="27"/>
</g>
<!-- 2085349912096&#45;&gt;2085350111744 -->
<g id="edge15" class="edge">
<title>2085349912096&#45;&gt;2085350111744</title>
<path fill="none" stroke="black" d="M221.29,-171.61C255.52,-172.39 315.84,-169.14 357,-141 370.36,-131.86 380.39,-117.2 387.47,-103.48"/>
<polygon fill="black" stroke="black" points="390.74,-104.75 391.9,-94.22 384.43,-101.73 390.74,-104.75"/>
<text text-anchor="middle" x="330" y="-166.4" font-family="Times New Roman,serif" font-size="12.00">1</text>
</g>
<!-- 2085369064224 -->
<g id="node4" class="node">
<title>2085369064224</title>
<polygon fill="black" stroke="black" points="1187,-212 1133,-212 1133,-176 1187,-176 1187,-212"/>
</g>
<!-- 2085350083024 -->
<g id="node24" class="node">
<title>2085350083024</title>
<ellipse fill="none" stroke="black" cx="1304" cy="-194" rx="27" ry="27"/>
</g>
<!-- 2085369064224&#45;&gt;2085350083024 -->
<g id="edge16" class="edge">
<title>2085369064224&#45;&gt;2085350083024</title>
<path fill="none" stroke="black" stroke-width="2.47" d="M1187.04,-194C1209.32,-194 1241.63,-194 1266.49,-194"/>
<polygon fill="black" stroke="black" stroke-width="2.47" points="1266.64,-197.5 1276.64,-194 1266.64,-190.5 1266.64,-197.5"/>
<text text-anchor="middle" x="1232" y="-197.4" font-family="Times New Roman,serif" font-size="12.00">23</text>
</g>
<!-- 2085369760928 -->
<g id="node5" class="node">
<title>2085369760928</title>
<polygon fill="black" stroke="black" points="357,-36 303,-36 303,0 357,0 357,-36"/>
</g>
<!-- 2085369760928&#45;&gt;2085350082496 -->
<g id="edge12" class="edge">
<title>2085369760928&#45;&gt;2085350082496</title>
<path fill="none" stroke="black" d="M357.17,-16.82C385.65,-15.64 432.55,-14 473,-14 473,-14 473,-14 1930,-14 2015.14,-14 2049.84,-133.94 2062.13,-196.3"/>
<polygon fill="black" stroke="black" points="2058.7,-196.96 2063.98,-206.15 2065.58,-195.67 2058.7,-196.96"/>
</g>
<!-- 2085350082352 -->
<g id="node6" class="node">
<title>2085350082352</title>
<polygon fill="#ebebff" stroke="black" points="807.5,-238 692.5,-238 692.5,-202 807.5,-202 807.5,-238"/>
<text text-anchor="middle" x="750" y="-216.9" font-family="Times New Roman,serif" font-size="12.00">Automatic Reply (28)</text>
</g>
<!-- 2085346851808 -->
<g id="node19" class="node">
<title>2085346851808</title>
<ellipse fill="none" stroke="black" cx="1057" cy="-215" rx="27" ry="27"/>
</g>
<!-- 2085350082352&#45;&gt;2085346851808 -->
<g id="edge2" class="edge">
<title>2085350082352&#45;&gt;2085346851808</title>
<path fill="none" stroke="black" stroke-width="2.53" d="M807.65,-219.07C869.7,-218.05 967.36,-216.45 1019.81,-215.59"/>
<polygon fill="black" stroke="black" stroke-width="2.53" points="1020.04,-219.09 1029.98,-215.43 1019.93,-212.09 1020.04,-219.09"/>
<text text-anchor="middle" x="1005.5" y="-218.4" font-family="Times New Roman,serif" font-size="12.00">24</text>
</g>
<!-- 2085350080816 -->
<g id="node7" class="node">
<title>2085350080816</title>
<polygon fill="black" stroke="black" points="501,-296 447,-296 447,-260 501,-260 501,-296"/>
</g>
<!-- 2085350080816&#45;&gt;2085350083024 -->
<g id="edge13" class="edge">
<title>2085350080816&#45;&gt;2085350083024</title>
<path fill="none" stroke="black" stroke-width="1.07" d="M501.17,-278C578.26,-278 811.22,-278 1004.5,-278 1004.5,-278 1004.5,-278 1161,-278 1205,-278 1222.1,-287.96 1259,-264 1272.21,-255.43 1282.17,-241.35 1289.25,-228.06"/>
<polygon fill="black" stroke="black" stroke-width="1.07" points="1292.41,-229.58 1293.7,-219.06 1286.13,-226.48 1292.41,-229.58"/>
<text text-anchor="middle" x="1057" y="-281.4" font-family="Times New Roman,serif" font-size="12.00">2</text>
</g>
<!-- 2085369761072 -->
<g id="node8" class="node">
<title>2085369761072</title>
<polygon fill="black" stroke="black" points="1403,-382 1349,-382 1349,-346 1403,-346 1403,-382"/>
</g>
<!-- 2085369761072&#45;&gt;2085350082496 -->
<g id="edge10" class="edge">
<title>2085369761072&#45;&gt;2085350082496</title>
<path fill="none" stroke="black" d="M1403.14,-362.04C1462.41,-357.77 1611.55,-348 1736.5,-348 1736.5,-348 1736.5,-348 1930,-348 1982.25,-348 2025.21,-298.75 2048.67,-264.71"/>
<polygon fill="black" stroke="black" points="2051.84,-266.26 2054.48,-256 2046.02,-262.37 2051.84,-266.26"/>
</g>
<!-- 2085369757904 -->
<g id="node9" class="node">
<title>2085369757904</title>
<polygon fill="black" stroke="black" points="1956,-197 1902,-197 1902,-161 1956,-161 1956,-197"/>
</g>
<!-- 2085369757904&#45;&gt;2085350082496 -->
<g id="edge8" class="edge">
<title>2085369757904&#45;&gt;2085350082496</title>
<path fill="none" stroke="black" stroke-width="2" d="M1956.28,-189.28C1978.41,-197.94 2010.21,-210.39 2034.23,-219.79"/>
<polygon fill="black" stroke="black" stroke-width="2" points="2033.08,-223.09 2043.67,-223.48 2035.63,-216.58 2033.08,-223.09"/>
<text text-anchor="middle" x="2017.5" y="-218.4" font-family="Times New Roman,serif" font-size="12.00">16</text>
</g>
<!-- 2085350083408 -->
<g id="node10" class="node">
<title>2085350083408</title>
<polygon fill="#9b9bff" stroke="black" points="1713,-212 1421,-212 1421,-176 1713,-176 1713,-212"/>
<text text-anchor="middle" x="1567" y="-190.9" font-family="Times New Roman,serif" font-size="12.00">Internal Communication / Clarification of Requirements (146)</text>
</g>
<!-- 2085347880000 -->
<g id="node20" class="node">
<title>2085347880000</title>
<ellipse fill="none" stroke="black" cx="1789" cy="-194" rx="27" ry="27"/>
</g>
<!-- 2085350083408&#45;&gt;2085347880000 -->
<g id="edge4" class="edge">
<title>2085350083408&#45;&gt;2085347880000</title>
<path fill="none" stroke="black" stroke-width="2.6" d="M1713.21,-194C1727.19,-194 1740.31,-194 1751.55,-194"/>
<polygon fill="black" stroke="black" stroke-width="2.6" points="1751.71,-197.5 1761.71,-194 1751.71,-190.5 1751.71,-197.5"/>
<text text-anchor="middle" x="1737.5" y="-197.4" font-family="Times New Roman,serif" font-size="12.00">25</text>
</g>
<!-- 2085350112080 -->
<g id="node11" class="node">
<title>2085350112080</title>
<polygon fill="black" stroke="black" points="221,-346 167,-346 167,-310 221,-310 221,-346"/>
</g>
<!-- 2085350112080&#45;&gt;2085350083552 -->
<g id="edge14" class="edge">
<title>2085350112080&#45;&gt;2085350083552</title>
<path fill="none" stroke="black" d="M221.09,-328.63C257.44,-329.52 323.49,-331.12 364.65,-332.12"/>
<polygon fill="black" stroke="black" points="364.72,-335.62 374.8,-332.36 364.89,-328.62 364.72,-335.62"/>
<text text-anchor="middle" x="330" y="-334.4" font-family="Times New Roman,serif" font-size="12.00">1</text>
</g>
<!-- 2085369759824 -->
<g id="node12" class="node">
<title>2085369759824</title>
<polygon fill="black" stroke="black" points="1956,-143 1902,-143 1902,-107 1956,-107 1956,-143"/>
</g>
<!-- 2085369759824&#45;&gt;2085350083024 -->
<g id="edge7" class="edge">
<title>2085369759824&#45;&gt;2085350083024</title>
<path fill="none" stroke="black" stroke-width="2.47" d="M1901.99,-125.81C1826.95,-128.45 1603.8,-138.31 1421,-167 1393.54,-171.31 1362.94,-178.54 1340.06,-184.43"/>
<polygon fill="black" stroke="black" stroke-width="2.47" points="1338.92,-181.11 1330.14,-187.03 1340.7,-187.88 1338.92,-181.11"/>
<text text-anchor="middle" x="1737.5" y="-137.4" font-family="Times New Roman,serif" font-size="12.00">23</text>
</g>
<!-- 2085369760976 -->
<g id="node13" class="node">
<title>2085369760976</title>
<polygon fill="black" stroke="black" points="221,-87 167,-87 167,-51 221,-51 221,-87"/>
</g>
<!-- 2085369760976&#45;&gt;2085350111744 -->
<g id="edge11" class="edge">
<title>2085369760976&#45;&gt;2085350111744</title>
<path fill="none" stroke="black" stroke-width="1.73" d="M221.09,-69C257.44,-69 323.49,-69 364.65,-69"/>
<polygon fill="black" stroke="black" stroke-width="1.73" points="364.8,-72.5 374.8,-69 364.8,-65.5 364.8,-72.5"/>
<text text-anchor="middle" x="330" y="-72.4" font-family="Times New Roman,serif" font-size="12.00">12</text>
</g>
<!-- 2085350082016 -->
<g id="node14" class="node">
<title>2085350082016</title>
<polygon fill="#e5e5ff" stroke="black" points="285,-242 103,-242 103,-206 285,-206 285,-242"/>
<text text-anchor="middle" x="194" y="-220.9" font-family="Times New Roman,serif" font-size="12.00">Initial Application by Candidate (37)</text>
</g>
<!-- 2085350082736 -->
<g id="node23" class="node">
<title>2085350082736</title>
<ellipse fill="none" stroke="black" cx="402" cy="-223" rx="27" ry="27"/>
</g>
<!-- 2085350082016&#45;&gt;2085350082736 -->
<g id="edge3" class="edge">
<title>2085350082016&#45;&gt;2085350082736</title>
<path fill="none" stroke="black" stroke-width="2.4" d="M285.05,-223.56C313.15,-223.43 342.56,-223.28 364.72,-223.18"/>
<polygon fill="black" stroke="black" stroke-width="2.4" points="365,-226.67 374.99,-223.13 364.97,-219.67 365,-226.67"/>
<text text-anchor="middle" x="330" y="-226.4" font-family="Times New Roman,serif" font-size="12.00">22</text>
</g>
<!-- 2085350083168 -->
<g id="node15" class="node">
<title>2085350083168</title>
<polygon fill="#e4e4ff" stroke="black" points="843.5,-121 656.5,-121 656.5,-85 843.5,-85 843.5,-121"/>
<text text-anchor="middle" x="750" y="-99.9" font-family="Times New Roman,serif" font-size="12.00">Job Offer / Contract Negotiation (38)</text>
</g>
<!-- 2085369758096 -->
<g id="node21" class="node">
<title>2085369758096</title>
<ellipse fill="none" stroke="black" cx="27" cy="-69" rx="27" ry="27"/>
</g>
<!-- 2085350083168&#45;&gt;2085369758096 -->
<g id="edge5" class="edge">
<title>2085350083168&#45;&gt;2085369758096</title>
<path fill="none" stroke="black" stroke-width="2" d="M656.41,-111.29C530.21,-120.48 297.61,-129.92 103,-96 88.88,-93.54 73.9,-88.65 61.08,-83.7"/>
<polygon fill="black" stroke="black" stroke-width="2" points="62.32,-80.43 51.74,-79.94 59.71,-86.92 62.32,-80.43"/>
<text text-anchor="middle" x="330" y="-121.4" font-family="Times New Roman,serif" font-size="12.00">16</text>
</g>
<!-- 2085368639200 -->
<g id="node16" class="node">
<title>2085368639200</title>
<polygon fill="black" stroke="black" points="1259,-261 1205,-261 1205,-225 1259,-225 1259,-261"/>
</g>
<!-- 2085368639200&#45;&gt;2085350082496 -->
<g id="edge17" class="edge">
<title>2085368639200&#45;&gt;2085350082496</title>
<path fill="none" stroke="black" stroke-width="1.13" d="M1259.19,-253.8C1287.31,-264.41 1333.54,-279 1375,-279 1375,-279 1375,-279 1930,-279 1967.73,-279 2008.41,-263.34 2035.76,-250.29"/>
<polygon fill="black" stroke="black" stroke-width="1.13" points="2037.43,-253.37 2044.85,-245.81 2034.33,-247.09 2037.43,-253.37"/>
<text text-anchor="middle" x="1737.5" y="-282.4" font-family="Times New Roman,serif" font-size="12.00">3</text>
</g>
<!-- 2085350083312 -->
<g id="node17" class="node">
<title>2085350083312</title>
<polygon fill="#d8d8ff" stroke="black" points="981,-385 519,-385 519,-349 981,-349 981,-385"/>
<text text-anchor="middle" x="750" y="-363.9" font-family="Times New Roman,serif" font-size="12.00">Organizational Communication with Candidate for Clarification of Skills or Interview Invitation (56)</text>
</g>
<!-- 2085349857072 -->
<g id="node22" class="node">
<title>2085349857072</title>
<ellipse fill="none" stroke="black" cx="1057" cy="-374" rx="27" ry="27"/>
</g>
<!-- 2085350083312&#45;&gt;2085349857072 -->
<g id="edge6" class="edge">
<title>2085350083312&#45;&gt;2085349857072</title>
<path fill="none" stroke="black" stroke-width="2.27" d="M981.39,-372.29C995.6,-372.61 1008.58,-372.91 1019.59,-373.16"/>
<polygon fill="black" stroke="black" stroke-width="2.27" points="1019.83,-376.67 1029.91,-373.4 1019.99,-369.67 1019.83,-376.67"/>
<text text-anchor="middle" x="1005.5" y="-375.4" font-family="Times New Roman,serif" font-size="12.00">20</text>
</g>
<!-- 2085350082304 -->
<g id="node18" class="node">
<title>2085350082304</title>
<ellipse fill="green" stroke="black" cx="27" cy="-253" rx="27" ry="27"/>
<text text-anchor="middle" x="27" y="-249.9" font-family="Times New Roman,serif" font-size="12.00">1</text>
</g>
<!-- 2085350082304&#45;&gt;2085349912096 -->
<g id="edge34" class="edge">
<title>2085350082304&#45;&gt;2085349912096</title>
<path fill="none" stroke="black" d="M47.73,-235.23C62.15,-223.02 82.68,-207.23 103,-197 119.89,-188.5 139.94,-182.16 156.83,-177.77"/>
<polygon fill="black" stroke="black" points="158.01,-181.08 166.87,-175.28 156.33,-174.28 158.01,-181.08"/>
<text text-anchor="middle" x="78.5" y="-218.4" font-family="Times New Roman,serif" font-size="12.00">1</text>
</g>
<!-- 2085350082304&#45;&gt;2085350080816 -->
<g id="edge32" class="edge">
<title>2085350082304&#45;&gt;2085350080816</title>
<path fill="none" stroke="black" stroke-width="1.07" d="M53.48,-258.94C59.52,-260.15 65.96,-261.27 72,-262 205.55,-278.21 365.77,-279.07 436.45,-278.51"/>
<polygon fill="black" stroke="black" stroke-width="1.07" points="436.64,-282.01 446.61,-278.42 436.58,-275.01 436.64,-282.01"/>
<text text-anchor="middle" x="194" y="-279.4" font-family="Times New Roman,serif" font-size="12.00">2</text>
</g>
<!-- 2085350082304&#45;&gt;2085350112080 -->
<g id="edge33" class="edge">
<title>2085350082304&#45;&gt;2085350112080</title>
<path fill="none" stroke="black" d="M46.3,-272.47C53.72,-279.44 62.72,-286.84 72,-292 98.6,-306.78 131.95,-316.12 156.89,-321.57"/>
<polygon fill="black" stroke="black" points="156.18,-325 166.69,-323.61 157.61,-318.15 156.18,-325"/>
<text text-anchor="middle" x="78.5" y="-301.4" font-family="Times New Roman,serif" font-size="12.00">1</text>
</g>
<!-- 2085350082304&#45;&gt;2085350082016 -->
<g id="edge31" class="edge">
<title>2085350082304&#45;&gt;2085350082016</title>
<path fill="none" stroke="black" stroke-width="2.4" d="M53.78,-248.47C64.75,-246.54 78.32,-244.16 92.64,-241.64"/>
<polygon fill="black" stroke="black" stroke-width="2.4" points="93.41,-245.06 102.66,-239.88 92.2,-238.16 93.41,-245.06"/>
<text text-anchor="middle" x="78.5" y="-248.4" font-family="Times New Roman,serif" font-size="12.00">22</text>
</g>
<!-- 2085346851808&#45;&gt;2085369064224 -->
<g id="edge18" class="edge">
<title>2085346851808&#45;&gt;2085369064224</title>
<path fill="none" stroke="black" stroke-width="2.47" d="M1083.56,-209.04C1089.6,-207.68 1096.02,-206.26 1102,-205 1108.76,-203.58 1115.98,-202.13 1122.94,-200.77"/>
<polygon fill="black" stroke="black" stroke-width="2.47" points="1123.7,-204.19 1132.86,-198.86 1122.38,-197.32 1123.7,-204.19"/>
<text text-anchor="middle" x="1108.5" y="-208.4" font-family="Times New Roman,serif" font-size="12.00">23</text>
</g>
<!-- 2085346851808&#45;&gt;2085368639200 -->
<g id="edge19" class="edge">
<title>2085346851808&#45;&gt;2085368639200</title>
<path fill="none" stroke="black" stroke-width="1.13" d="M1083.9,-219.19C1113.33,-223.95 1161.56,-231.76 1194.73,-237.13"/>
<polygon fill="black" stroke="black" stroke-width="1.13" points="1194.49,-240.64 1204.92,-238.78 1195.61,-233.73 1194.49,-240.64"/>
<text text-anchor="middle" x="1108.5" y="-226.4" font-family="Times New Roman,serif" font-size="12.00">3</text>
</g>
<!-- 2085347880000&#45;&gt;2085350082688 -->
<g id="edge20" class="edge">
<title>2085347880000&#45;&gt;2085350082688</title>
<path fill="none" stroke="black" stroke-width="1.4" d="M1815.31,-201.15C1826.69,-204.37 1840.76,-208.35 1855.06,-212.39"/>
<polygon fill="black" stroke="black" stroke-width="1.4" points="1854.39,-215.84 1864.97,-215.19 1856.3,-209.1 1854.39,-215.84"/>
<text text-anchor="middle" x="1840.5" y="-213.4" font-family="Times New Roman,serif" font-size="12.00">7</text>
</g>
<!-- 2085347880000&#45;&gt;2085369757904 -->
<g id="edge22" class="edge">
<title>2085347880000&#45;&gt;2085369757904</title>
<path fill="none" stroke="black" stroke-width="2" d="M1815.96,-191.18C1837.31,-188.86 1867.83,-185.54 1891.62,-182.95"/>
<polygon fill="black" stroke="black" stroke-width="2" points="1892.13,-186.42 1901.69,-181.86 1891.37,-179.46 1892.13,-186.42"/>
<text text-anchor="middle" x="1840.5" y="-192.4" font-family="Times New Roman,serif" font-size="12.00">16</text>
</g>
<!-- 2085347880000&#45;&gt;2085369759824 -->
<g id="edge21" class="edge">
<title>2085347880000&#45;&gt;2085369759824</title>
<path fill="none" stroke="black" stroke-width="2.47" d="M1812.64,-180.5C1827.35,-171.93 1847.06,-160.84 1865,-152 1873.87,-147.63 1883.63,-143.25 1892.75,-139.33"/>
<polygon fill="black" stroke="black" stroke-width="2.47" points="1894.13,-142.55 1901.97,-135.43 1891.4,-136.1 1894.13,-142.55"/>
<text text-anchor="middle" x="1840.5" y="-170.4" font-family="Times New Roman,serif" font-size="12.00">23</text>
</g>
<!-- 2085369758096&#45;&gt;2085369760928 -->
<g id="edge24" class="edge">
<title>2085369758096&#45;&gt;2085369760928</title>
<path fill="none" stroke="black" d="M52.21,-58.61C66.69,-52.82 85.6,-45.99 103,-42 168.86,-26.88 247.75,-21.25 292.76,-19.18"/>
<polygon fill="black" stroke="black" points="293.07,-22.67 302.91,-18.75 292.77,-15.67 293.07,-22.67"/>
</g>
<!-- 2085369758096&#45;&gt;2085369760976 -->
<g id="edge23" class="edge">
<title>2085369758096&#45;&gt;2085369760976</title>
<path fill="none" stroke="black" stroke-width="1.73" d="M54.14,-69C81.78,-69 125.58,-69 156.59,-69"/>
<polygon fill="black" stroke="black" stroke-width="1.73" points="156.98,-72.5 166.98,-69 156.98,-65.5 156.98,-72.5"/>
<text text-anchor="middle" x="78.5" y="-72.4" font-family="Times New Roman,serif" font-size="12.00">12</text>
</g>
<!-- 2085349857072&#45;&gt;2085369761552 -->
<g id="edge25" class="edge">
<title>2085349857072&#45;&gt;2085369761552</title>
<path fill="none" stroke="black" stroke-width="2.2" d="M1081.65,-362.46C1088.21,-359.33 1095.36,-355.98 1102,-353 1108.87,-349.92 1116.25,-346.72 1123.35,-343.71"/>
<polygon fill="black" stroke="black" stroke-width="2.2" points="1124.92,-346.84 1132.78,-339.74 1122.21,-340.39 1124.92,-346.84"/>
<text text-anchor="middle" x="1108.5" y="-356.4" font-family="Times New Roman,serif" font-size="12.00">19</text>
</g>
<!-- 2085349857072&#45;&gt;2085369761072 -->
<g id="edge26" class="edge">
<title>2085349857072&#45;&gt;2085369761072</title>
<path fill="none" stroke="black" d="M1084.21,-373.17C1140.7,-371.39 1274.02,-367.19 1338.63,-365.15"/>
<polygon fill="black" stroke="black" points="1338.87,-368.64 1348.76,-364.83 1338.65,-361.64 1338.87,-368.64"/>
</g>
<!-- 2085350082736&#45;&gt;2085350082352 -->
<g id="edge27" class="edge">
<title>2085350082736&#45;&gt;2085350082352</title>
<path fill="none" stroke="black" stroke-width="2.53" d="M429.01,-222.77C482.25,-222.31 605.14,-221.25 682.19,-220.58"/>
<polygon fill="black" stroke="black" stroke-width="2.53" points="682.31,-224.08 692.28,-220.49 682.25,-217.08 682.31,-224.08"/>
<text text-anchor="middle" x="474" y="-225.4" font-family="Times New Roman,serif" font-size="12.00">24</text>
</g>
<!-- 2085350083024&#45;&gt;2085350083408 -->
<g id="edge28" class="edge">
<title>2085350083024&#45;&gt;2085350083408</title>
<path fill="none" stroke="black" stroke-width="2.6" d="M1331.46,-194C1351.23,-194 1380.02,-194 1410.72,-194"/>
<polygon fill="black" stroke="black" stroke-width="2.6" points="1410.74,-197.5 1420.74,-194 1410.74,-190.5 1410.74,-197.5"/>
<text text-anchor="middle" x="1376" y="-197.4" font-family="Times New Roman,serif" font-size="12.00">25</text>
</g>
<!-- 2085350111744&#45;&gt;2085350083168 -->
<g id="edge29" class="edge">
<title>2085350111744&#45;&gt;2085350083168</title>
<path fill="none" stroke="black" stroke-width="2" d="M429.01,-71.56C474.58,-76.03 571.18,-85.53 646.38,-92.92"/>
<polygon fill="black" stroke="black" stroke-width="2" points="646.08,-96.4 656.37,-93.9 646.76,-89.44 646.08,-96.4"/>
<text text-anchor="middle" x="474" y="-81.4" font-family="Times New Roman,serif" font-size="12.00">16</text>
</g>
<!-- 2085350083552&#45;&gt;2085350083312 -->
<g id="edge30" class="edge">
<title>2085350083552&#45;&gt;2085350083312</title>
<path fill="none" stroke="black" stroke-width="2.27" d="M429.01,-335.56C457.3,-338.34 505.24,-343.05 555.53,-347.99"/>
<polygon fill="black" stroke="black" stroke-width="2.27" points="555.32,-351.48 565.62,-348.98 556.01,-344.52 555.32,-351.48"/>
<text text-anchor="middle" x="474" y="-345.4" font-family="Times New Roman,serif" font-size="12.00">20</text>
</g>
</g>
</svg>
